<?xml version="1.0" encoding="iso-8859-1"?>
<!-- Uploaded to: SVG Repo, www.svgrepo.com, Generator: SVG Repo Mixer Tools -->
<!DOCTYPE svg PUBLIC "-//W3C//DTD SVG 1.1//EN" "http://www.w3.org/Graphics/SVG/1.1/DTD/svg11.dtd">
<svg height="20px" width="20px" version="1.1" id="Capa_1" xmlns="http://www.w3.org/2000/svg" xmlns:xlink="http://www.w3.org/1999/xlink"
	 viewBox="-5 -5 69.978 69.978" xml:space="preserve">
<g>
	<path fill="#001831" stroke="#001831" d="M31.693,58.879c-0.058,0-0.114,0-0.172,0c-7.939-0.044-15.347-3.171-20.855-8.804
		C-2.147,36.973-3.595,16.09,7.295,1.5c0.331-0.442,0.957-0.534,1.4-0.203c0.442,0.33,0.533,0.957,0.203,1.399
		c-10.309,13.808-8.934,33.575,3.196,45.98c5.133,5.248,12.035,8.161,19.437,8.202c0.054,0,0.107,0,0.161,0
		c7.483,0,14.514-2.912,19.813-8.21c4.174-4.174,6.473-9.723,6.473-15.626c0-5.902-2.299-11.452-6.473-15.625
		c-3.301-3.301-7.69-5.119-12.358-5.119c-4.669,0-9.059,1.818-12.359,5.119c-2.604,2.604-4.037,6.064-4.037,9.746
		c0,3.681,1.434,7.142,4.037,9.746c2.045,2.045,4.764,3.171,7.655,3.171s5.61-1.126,7.655-3.171c3.299-3.299,3.299-8.667,0-11.966
		c-2.562-2.561-6.729-2.56-9.29,0c-1.971,1.971-1.971,5.178,0,7.149c1.5,1.5,3.938,1.498,5.437,0c0.391-0.391,1.023-0.391,1.414,0
		c0.391,0.391,0.391,1.023,0,1.414c-2.278,2.278-5.984,2.279-8.265,0c-2.75-2.751-2.75-7.227,0-9.978
		c3.342-3.341,8.776-3.341,12.118,0c4.078,4.079,4.078,10.715,0,14.794c-2.423,2.423-5.644,3.757-9.069,3.757
		s-6.647-1.334-9.069-3.757c-2.981-2.981-4.623-6.944-4.623-11.16c0-4.216,1.642-8.179,4.623-11.16
		c3.679-3.679,8.57-5.705,13.773-5.705c5.202,0,10.094,2.026,13.772,5.705c4.552,4.552,7.059,10.603,7.059,17.04
		c0,6.437-2.507,12.488-7.059,17.04C47.244,55.759,39.71,58.879,31.693,58.879z"/>
</g>
</svg>